<?xml version="1.0" encoding="UTF-8" standalone="no"?>
<!DOCTYPE svg PUBLIC "-//W3C//DTD SVG 1.1//EN"
 "http://www.w3.org/Graphics/SVG/1.1/DTD/svg11.dtd">
<!-- Generated by graphviz version 2.28.0 (20120524.1256)
 -->
<!-- Title: controllers_diagram Pages: 1 -->
<svg width="537pt" height="595pt"
 viewBox="0.00 0.00 537.00 595.00" xmlns="http://www.w3.org/2000/svg" xmlns:xlink="http://www.w3.org/1999/xlink">
<g id="graph1" class="graph" transform="scale(1 1) rotate(0) translate(4 591)">
<title>controllers_diagram</title>
<polygon fill="white" stroke="white" points="-4,5 -4,-591 534,-591 534,5 -4,5"/>
<!-- _diagram_info -->
<g id="node1" class="node"><title>_diagram_info</title>
<text text-anchor="start" x="328" y="-191.6" font-family="Times,serif" font-size="13.00">Controllers diagram</text>
<text text-anchor="start" x="328" y="-177.6" font-family="Times,serif" font-size="13.00">Date: Aug 12 2012 &#45; 22:47</text>
<text text-anchor="start" x="328" y="-163.6" font-family="Times,serif" font-size="13.00">Migration version: 20120812150850</text>
<text text-anchor="start" x="328" y="-149.6" font-family="Times,serif" font-size="13.00">Generated by RailRoady 1.0.8</text>
<text text-anchor="start" x="328" y="-135.6" font-family="Times,serif" font-size="13.00">http://railroady.prestonlee.com</text>
</g>
<!-- StoreController -->
<g id="node2" class="node"><title>StoreController</title>
<polyline fill="none" stroke="black" points="300,-0.5 379,-0.5 "/>
<path fill="none" stroke="black" d="M379,-0.5C385,-0.5 391,-6.5 391,-12.5"/>
<polyline fill="none" stroke="black" points="391,-12.5 391,-81.5 "/>
<path fill="none" stroke="black" d="M391,-81.5C391,-87.5 385,-93.5 379,-93.5"/>
<polyline fill="none" stroke="black" points="379,-93.5 300,-93.5 "/>
<path fill="none" stroke="black" d="M300,-93.5C294,-93.5 288,-87.5 288,-81.5"/>
<polyline fill="none" stroke="black" points="288,-81.5 288,-12.5 "/>
<path fill="none" stroke="black" d="M288,-12.5C288,-6.5 294,-0.5 300,-0.5"/>
<text text-anchor="middle" x="339.5" y="-78.3" font-family="Times,serif" font-size="14.00">StoreController</text>
<polyline fill="none" stroke="black" points="288,-70.5 391,-70.5 "/>
<text text-anchor="start" x="296" y="-55.3" font-family="Times,serif" font-size="14.00">index</text>
<polyline fill="none" stroke="black" points="288,-47.5 391,-47.5 "/>
<polyline fill="none" stroke="black" points="288,-23.5 391,-23.5 "/>
<text text-anchor="start" x="296" y="-8.3" font-family="Times,serif" font-size="14.00">_layout</text>
</g>
<!-- LineItemsController -->
<g id="node3" class="node"><title>LineItemsController</title>
<polyline fill="none" stroke="black" points="12,-32.5 116,-32.5 "/>
<path fill="none" stroke="black" d="M116,-32.5C122,-32.5 128,-38.5 128,-44.5"/>
<polyline fill="none" stroke="black" points="128,-44.5 128,-128.5 "/>
<path fill="none" stroke="black" d="M128,-128.5C128,-134.5 122,-140.5 116,-140.5"/>
<polyline fill="none" stroke="black" points="116,-140.5 12,-140.5 "/>
<path fill="none" stroke="black" d="M12,-140.5C6,-140.5 0,-134.5 0,-128.5"/>
<polyline fill="none" stroke="black" points="0,-128.5 0,-44.5 "/>
<path fill="none" stroke="black" d="M0,-44.5C0,-38.5 6,-32.5 12,-32.5"/>
<text text-anchor="middle" x="64" y="-125.3" font-family="Times,serif" font-size="14.00">LineItemsController</text>
<polyline fill="none" stroke="black" points="0,-117.5 128,-117.5 "/>
<text text-anchor="start" x="8" y="-102.3" font-family="Times,serif" font-size="14.00">create</text>
<text text-anchor="start" x="8" y="-87.3" font-family="Times,serif" font-size="14.00">destroy</text>
<polyline fill="none" stroke="black" points="0,-79.5 128,-79.5 "/>
<polyline fill="none" stroke="black" points="0,-55.5 128,-55.5 "/>
<text text-anchor="start" x="8" y="-40.3" font-family="Times,serif" font-size="14.00">_layout</text>
</g>
<!-- OrdersController -->
<g id="node4" class="node"><title>OrdersController</title>
<polyline fill="none" stroke="black" points="12,-448.5 100,-448.5 "/>
<path fill="none" stroke="black" d="M100,-448.5C106,-448.5 112,-454.5 112,-460.5"/>
<polyline fill="none" stroke="black" points="112,-460.5 112,-574.5 "/>
<path fill="none" stroke="black" d="M112,-574.5C112,-580.5 106,-586.5 100,-586.5"/>
<polyline fill="none" stroke="black" points="100,-586.5 12,-586.5 "/>
<path fill="none" stroke="black" d="M12,-586.5C6,-586.5 0,-580.5 0,-574.5"/>
<polyline fill="none" stroke="black" points="0,-574.5 0,-460.5 "/>
<path fill="none" stroke="black" d="M0,-460.5C0,-454.5 6,-448.5 12,-448.5"/>
<text text-anchor="middle" x="56" y="-571.3" font-family="Times,serif" font-size="14.00">OrdersController</text>
<polyline fill="none" stroke="black" points="0,-563.5 112,-563.5 "/>
<text text-anchor="start" x="8" y="-548.3" font-family="Times,serif" font-size="14.00">create</text>
<text text-anchor="start" x="8" y="-533.3" font-family="Times,serif" font-size="14.00">destroy</text>
<text text-anchor="start" x="8" y="-518.3" font-family="Times,serif" font-size="14.00">index</text>
<text text-anchor="start" x="8" y="-503.3" font-family="Times,serif" font-size="14.00">new</text>
<polyline fill="none" stroke="black" points="0,-495.5 112,-495.5 "/>
<polyline fill="none" stroke="black" points="0,-471.5 112,-471.5 "/>
<text text-anchor="start" x="8" y="-456.3" font-family="Times,serif" font-size="14.00">_layout</text>
</g>
<!-- IngredientsController -->
<g id="node5" class="node"><title>IngredientsController</title>
<polyline fill="none" stroke="black" points="316,-336.5 426,-336.5 "/>
<path fill="none" stroke="black" d="M426,-336.5C432,-336.5 438,-342.5 438,-348.5"/>
<polyline fill="none" stroke="black" points="438,-348.5 438,-492.5 "/>
<path fill="none" stroke="black" d="M438,-492.5C438,-498.5 432,-504.5 426,-504.5"/>
<polyline fill="none" stroke="black" points="426,-504.5 316,-504.5 "/>
<path fill="none" stroke="black" d="M316,-504.5C310,-504.5 304,-498.5 304,-492.5"/>
<polyline fill="none" stroke="black" points="304,-492.5 304,-348.5 "/>
<path fill="none" stroke="black" d="M304,-348.5C304,-342.5 310,-336.5 316,-336.5"/>
<text text-anchor="middle" x="371" y="-489.3" font-family="Times,serif" font-size="14.00">IngredientsController</text>
<polyline fill="none" stroke="black" points="304,-481.5 438,-481.5 "/>
<text text-anchor="start" x="312" y="-466.3" font-family="Times,serif" font-size="14.00">create</text>
<text text-anchor="start" x="312" y="-451.3" font-family="Times,serif" font-size="14.00">destroy</text>
<text text-anchor="start" x="312" y="-436.3" font-family="Times,serif" font-size="14.00">edit</text>
<text text-anchor="start" x="312" y="-421.3" font-family="Times,serif" font-size="14.00">index</text>
<text text-anchor="start" x="312" y="-406.3" font-family="Times,serif" font-size="14.00">new</text>
<text text-anchor="start" x="312" y="-391.3" font-family="Times,serif" font-size="14.00">update</text>
<polyline fill="none" stroke="black" points="304,-383.5 438,-383.5 "/>
<polyline fill="none" stroke="black" points="304,-359.5 438,-359.5 "/>
<text text-anchor="start" x="312" y="-344.3" font-family="Times,serif" font-size="14.00">_layout</text>
</g>
<!-- ApplicationController -->
<g id="node6" class="node"><title>ApplicationController</title>
<polyline fill="none" stroke="black" points="108,-176.5 279,-176.5 "/>
<path fill="none" stroke="black" d="M279,-176.5C285,-176.5 291,-182.5 291,-188.5"/>
<polyline fill="none" stroke="black" points="291,-188.5 291,-287.5 "/>
<path fill="none" stroke="black" d="M291,-287.5C291,-293.5 285,-299.5 279,-299.5"/>
<polyline fill="none" stroke="black" points="279,-299.5 108,-299.5 "/>
<path fill="none" stroke="black" d="M108,-299.5C102,-299.5 96,-293.5 96,-287.5"/>
<polyline fill="none" stroke="black" points="96,-287.5 96,-188.5 "/>
<path fill="none" stroke="black" d="M96,-188.5C96,-182.5 102,-176.5 108,-176.5"/>
<text text-anchor="middle" x="193.5" y="-284.3" font-family="Times,serif" font-size="14.00">ApplicationController</text>
<polyline fill="none" stroke="black" points="96,-276.5 291,-276.5 "/>
<text text-anchor="start" x="104" y="-261.3" font-family="Times,serif" font-size="14.00">_one_time_conditions_valid_8?</text>
<polyline fill="none" stroke="black" points="96,-253.5 291,-253.5 "/>
<polyline fill="none" stroke="black" points="96,-229.5 291,-229.5 "/>
<text text-anchor="start" x="104" y="-214.3" font-family="Times,serif" font-size="14.00">_layout</text>
<text text-anchor="start" x="104" y="-199.3" font-family="Times,serif" font-size="14.00">current_cart</text>
<text text-anchor="start" x="104" y="-184.3" font-family="Times,serif" font-size="14.00">decrease_ingredients_stock</text>
</g>
<!-- CartsController -->
<g id="node7" class="node"><title>CartsController</title>
<polyline fill="none" stroke="black" points="172,-32.5 251,-32.5 "/>
<path fill="none" stroke="black" d="M251,-32.5C257,-32.5 263,-38.5 263,-44.5"/>
<polyline fill="none" stroke="black" points="263,-44.5 263,-128.5 "/>
<path fill="none" stroke="black" d="M263,-128.5C263,-134.5 257,-140.5 251,-140.5"/>
<polyline fill="none" stroke="black" points="251,-140.5 172,-140.5 "/>
<path fill="none" stroke="black" d="M172,-140.5C166,-140.5 160,-134.5 160,-128.5"/>
<polyline fill="none" stroke="black" points="160,-128.5 160,-44.5 "/>
<path fill="none" stroke="black" d="M160,-44.5C160,-38.5 166,-32.5 172,-32.5"/>
<text text-anchor="middle" x="211.5" y="-125.3" font-family="Times,serif" font-size="14.00">CartsController</text>
<polyline fill="none" stroke="black" points="160,-117.5 263,-117.5 "/>
<text text-anchor="start" x="168" y="-102.3" font-family="Times,serif" font-size="14.00">destroy</text>
<text text-anchor="start" x="168" y="-87.3" font-family="Times,serif" font-size="14.00">show</text>
<polyline fill="none" stroke="black" points="160,-79.5 263,-79.5 "/>
<polyline fill="none" stroke="black" points="160,-55.5 263,-55.5 "/>
<text text-anchor="start" x="168" y="-40.3" font-family="Times,serif" font-size="14.00">_layout</text>
</g>
<!-- ProductsController -->
<g id="node8" class="node"><title>ProductsController</title>
<polyline fill="none" stroke="black" points="156,-336.5 256,-336.5 "/>
<path fill="none" stroke="black" d="M256,-336.5C262,-336.5 268,-342.5 268,-348.5"/>
<polyline fill="none" stroke="black" points="268,-348.5 268,-492.5 "/>
<path fill="none" stroke="black" d="M268,-492.5C268,-498.5 262,-504.5 256,-504.5"/>
<polyline fill="none" stroke="black" points="256,-504.5 156,-504.5 "/>
<path fill="none" stroke="black" d="M156,-504.5C150,-504.5 144,-498.5 144,-492.5"/>
<polyline fill="none" stroke="black" points="144,-492.5 144,-348.5 "/>
<path fill="none" stroke="black" d="M144,-348.5C144,-342.5 150,-336.5 156,-336.5"/>
<text text-anchor="middle" x="206" y="-489.3" font-family="Times,serif" font-size="14.00">ProductsController</text>
<polyline fill="none" stroke="black" points="144,-481.5 268,-481.5 "/>
<text text-anchor="start" x="152" y="-466.3" font-family="Times,serif" font-size="14.00">create</text>
<text text-anchor="start" x="152" y="-451.3" font-family="Times,serif" font-size="14.00">destroy</text>
<text text-anchor="start" x="152" y="-436.3" font-family="Times,serif" font-size="14.00">edit</text>
<text text-anchor="start" x="152" y="-421.3" font-family="Times,serif" font-size="14.00">index</text>
<text text-anchor="start" x="152" y="-406.3" font-family="Times,serif" font-size="14.00">new</text>
<text text-anchor="start" x="152" y="-391.3" font-family="Times,serif" font-size="14.00">update</text>
<polyline fill="none" stroke="black" points="144,-383.5 268,-383.5 "/>
<polyline fill="none" stroke="black" points="144,-359.5 268,-359.5 "/>
<text text-anchor="start" x="152" y="-344.3" font-family="Times,serif" font-size="14.00">_layout</text>
</g>
</g>
</svg>
