<?xml version="1.0" encoding="UTF-8" standalone="no"?>
<!DOCTYPE svg PUBLIC "-//W3C//DTD SVG 1.1//EN"
 "http://www.w3.org/Graphics/SVG/1.1/DTD/svg11.dtd">
<!-- Generated by graphviz version 2.28.0 (20120524.1256)
 -->
<!-- Title: models_diagram Pages: 1 -->
<svg width="667pt" height="304pt"
 viewBox="0.00 0.00 667.00 304.00" xmlns="http://www.w3.org/2000/svg" xmlns:xlink="http://www.w3.org/1999/xlink">
<g id="graph1" class="graph" transform="scale(1 1) rotate(0) translate(4 300)">
<title>models_diagram</title>
<polygon fill="white" stroke="white" points="-4,5 -4,-300 664,-300 664,5 -4,5"/>
<!-- _diagram_info -->
<g id="node1" class="node"><title>_diagram_info</title>
<text text-anchor="start" x="7.5" y="-266.6" font-family="Times,serif" font-size="13.00">Models diagram</text>
<text text-anchor="start" x="7.5" y="-252.6" font-family="Times,serif" font-size="13.00">Date: Aug 10 2012 &#45; 19:07</text>
<text text-anchor="start" x="7.5" y="-238.6" font-family="Times,serif" font-size="13.00">Migration version: 20120809142645</text>
<text text-anchor="start" x="7.5" y="-224.6" font-family="Times,serif" font-size="13.00">Generated by RailRoady 1.0.8</text>
<text text-anchor="start" x="7.5" y="-210.6" font-family="Times,serif" font-size="13.00">http://railroady.prestonlee.com</text>
</g>
<!-- Cart -->
<g id="node2" class="node"><title>Cart</title>
<polyline fill="none" stroke="black" points="239,-204 347,-204 "/>
<path fill="none" stroke="black" d="M347,-204C353,-204 359,-210 359,-216"/>
<polyline fill="none" stroke="black" points="359,-216 359,-268 "/>
<path fill="none" stroke="black" d="M359,-268C359,-274 353,-280 347,-280"/>
<polyline fill="none" stroke="black" points="347,-280 239,-280 "/>
<path fill="none" stroke="black" d="M239,-280C233,-280 227,-274 227,-268"/>
<polyline fill="none" stroke="black" points="227,-268 227,-216 "/>
<path fill="none" stroke="black" d="M227,-216C227,-210 233,-204 239,-204"/>
<text text-anchor="middle" x="293" y="-264.8" font-family="Times,serif" font-size="14.00">Cart</text>
<polyline fill="none" stroke="black" points="227,-257 359,-257 "/>
<text text-anchor="start" x="235" y="-241.8" font-family="Times,serif" font-size="14.00">id :integer</text>
<text text-anchor="start" x="235" y="-226.8" font-family="Times,serif" font-size="14.00">created_at :datetime</text>
<text text-anchor="start" x="235" y="-211.8" font-family="Times,serif" font-size="14.00">updated_at :datetime</text>
</g>
<!-- LineItem -->
<g id="node3" class="node"><title>LineItem</title>
<polyline fill="none" stroke="black" points="389,-15.5 497,-15.5 "/>
<path fill="none" stroke="black" d="M497,-15.5C503,-15.5 509,-21.5 509,-27.5"/>
<polyline fill="none" stroke="black" points="509,-27.5 509,-124.5 "/>
<path fill="none" stroke="black" d="M509,-124.5C509,-130.5 503,-136.5 497,-136.5"/>
<polyline fill="none" stroke="black" points="497,-136.5 389,-136.5 "/>
<path fill="none" stroke="black" d="M389,-136.5C383,-136.5 377,-130.5 377,-124.5"/>
<polyline fill="none" stroke="black" points="377,-124.5 377,-27.5 "/>
<path fill="none" stroke="black" d="M377,-27.5C377,-21.5 383,-15.5 389,-15.5"/>
<text text-anchor="middle" x="443" y="-121.3" font-family="Times,serif" font-size="14.00">LineItem</text>
<polyline fill="none" stroke="black" points="377,-113.5 509,-113.5 "/>
<text text-anchor="start" x="385" y="-98.3" font-family="Times,serif" font-size="14.00">id :integer</text>
<text text-anchor="start" x="385" y="-83.3" font-family="Times,serif" font-size="14.00">product_id :integer</text>
<text text-anchor="start" x="385" y="-68.3" font-family="Times,serif" font-size="14.00">cart_id :integer</text>
<text text-anchor="start" x="385" y="-53.3" font-family="Times,serif" font-size="14.00">created_at :datetime</text>
<text text-anchor="start" x="385" y="-38.3" font-family="Times,serif" font-size="14.00">updated_at :datetime</text>
<text text-anchor="start" x="385" y="-23.3" font-family="Times,serif" font-size="14.00">order_id :integer</text>
</g>
<!-- Cart&#45;&gt;LineItem -->
<g id="edge2" class="edge"><title>Cart&#45;&gt;LineItem</title>
<path fill="none" stroke="#db645d" d="M332.704,-197.591C347.656,-181.243 365.032,-162.245 381.508,-144.231"/>
<ellipse fill="none" stroke="#db645d" cx="329.737" cy="-200.834" rx="4.00002" ry="4.00002"/>
<polygon fill="#db645d" stroke="#db645d" points="381.756,-143.96 391.826,-139.618 385.131,-140.271 388.505,-136.581 388.505,-136.581 388.505,-136.581 385.131,-140.271 385.185,-133.544 381.756,-143.96 381.756,-143.96"/>
</g>
<!-- Product -->
<g id="node4" class="node"><title>Product</title>
<polyline fill="none" stroke="black" points="539,-189 647,-189 "/>
<path fill="none" stroke="black" d="M647,-189C653,-189 659,-195 659,-201"/>
<polyline fill="none" stroke="black" points="659,-201 659,-283 "/>
<path fill="none" stroke="black" d="M659,-283C659,-289 653,-295 647,-295"/>
<polyline fill="none" stroke="black" points="647,-295 539,-295 "/>
<path fill="none" stroke="black" d="M539,-295C533,-295 527,-289 527,-283"/>
<polyline fill="none" stroke="black" points="527,-283 527,-201 "/>
<path fill="none" stroke="black" d="M527,-201C527,-195 533,-189 539,-189"/>
<text text-anchor="middle" x="593" y="-279.8" font-family="Times,serif" font-size="14.00">Product</text>
<polyline fill="none" stroke="black" points="527,-272 659,-272 "/>
<text text-anchor="start" x="535" y="-256.8" font-family="Times,serif" font-size="14.00">id :integer</text>
<text text-anchor="start" x="535" y="-241.8" font-family="Times,serif" font-size="14.00">title :string</text>
<text text-anchor="start" x="535" y="-226.8" font-family="Times,serif" font-size="14.00">price :decimal</text>
<text text-anchor="start" x="535" y="-211.8" font-family="Times,serif" font-size="14.00">created_at :datetime</text>
<text text-anchor="start" x="535" y="-196.8" font-family="Times,serif" font-size="14.00">updated_at :datetime</text>
</g>
<!-- Product&#45;&gt;LineItem -->
<g id="edge4" class="edge"><title>Product&#45;&gt;LineItem</title>
<path fill="none" stroke="#245971" d="M539.726,-182.753C528.26,-170.218 516.054,-156.872 504.311,-144.033"/>
<ellipse fill="none" stroke="#245971" cx="542.427" cy="-185.707" rx="4.00002" ry="4.00002"/>
<polygon fill="#245971" stroke="#245971" points="504.208,-143.921 500.78,-133.505 500.834,-140.232 497.459,-136.542 497.459,-136.542 497.459,-136.542 500.834,-140.232 494.139,-139.579 504.208,-143.921 504.208,-143.921"/>
</g>
<!-- Ingredient -->
<g id="node6" class="node"><title>Ingredient</title>
<polyline fill="none" stroke="black" points="539,-0.5 647,-0.5 "/>
<path fill="none" stroke="black" d="M647,-0.5C653,-0.5 659,-6.5 659,-12.5"/>
<polyline fill="none" stroke="black" points="659,-12.5 659,-139.5 "/>
<path fill="none" stroke="black" d="M659,-139.5C659,-145.5 653,-151.5 647,-151.5"/>
<polyline fill="none" stroke="black" points="647,-151.5 539,-151.5 "/>
<path fill="none" stroke="black" d="M539,-151.5C533,-151.5 527,-145.5 527,-139.5"/>
<polyline fill="none" stroke="black" points="527,-139.5 527,-12.5 "/>
<path fill="none" stroke="black" d="M527,-12.5C527,-6.5 533,-0.5 539,-0.5"/>
<text text-anchor="middle" x="593" y="-136.3" font-family="Times,serif" font-size="14.00">Ingredient</text>
<polyline fill="none" stroke="black" points="527,-128.5 659,-128.5 "/>
<text text-anchor="start" x="535" y="-113.3" font-family="Times,serif" font-size="14.00">id :integer</text>
<text text-anchor="start" x="535" y="-98.3" font-family="Times,serif" font-size="14.00">name :string</text>
<text text-anchor="start" x="535" y="-83.3" font-family="Times,serif" font-size="14.00">quantity :integer</text>
<text text-anchor="start" x="535" y="-68.3" font-family="Times,serif" font-size="14.00">price :decimal</text>
<text text-anchor="start" x="535" y="-53.3" font-family="Times,serif" font-size="14.00">created_at :datetime</text>
<text text-anchor="start" x="535" y="-38.3" font-family="Times,serif" font-size="14.00">updated_at :datetime</text>
<text text-anchor="start" x="535" y="-23.3" font-family="Times,serif" font-size="14.00">active :boolean</text>
<text text-anchor="start" x="535" y="-8.3" font-family="Times,serif" font-size="14.00">threshold :integer</text>
</g>
<!-- Product&#45;&gt;Ingredient -->
<g id="edge6" class="edge"><title>Product&#45;&gt;Ingredient</title>
<path fill="none" stroke="#b0cb5c" d="M593,-178.494C593,-172.99 593,-167.362 593,-161.717"/>
<polygon fill="#b0cb5c" stroke="#b0cb5c" points="593,-178.658 588.5,-188.658 593,-183.658 593,-188.658 593,-188.658 593,-188.658 593,-183.658 597.5,-188.659 593,-178.658 593,-178.658"/>
<polygon fill="#b0cb5c" stroke="#b0cb5c" points="593,-161.56 597.5,-151.56 593,-156.56 593,-151.56 593,-151.56 593,-151.56 593,-156.56 588.5,-151.56 593,-161.56 593,-161.56"/>
</g>
<!-- Order -->
<g id="node5" class="node"><title>Order</title>
<polyline fill="none" stroke="black" points="389,-189 497,-189 "/>
<path fill="none" stroke="black" d="M497,-189C503,-189 509,-195 509,-201"/>
<polyline fill="none" stroke="black" points="509,-201 509,-283 "/>
<path fill="none" stroke="black" d="M509,-283C509,-289 503,-295 497,-295"/>
<polyline fill="none" stroke="black" points="497,-295 389,-295 "/>
<path fill="none" stroke="black" d="M389,-295C383,-295 377,-289 377,-283"/>
<polyline fill="none" stroke="black" points="377,-283 377,-201 "/>
<path fill="none" stroke="black" d="M377,-201C377,-195 383,-189 389,-189"/>
<text text-anchor="middle" x="443" y="-279.8" font-family="Times,serif" font-size="14.00">Order</text>
<polyline fill="none" stroke="black" points="377,-272 509,-272 "/>
<text text-anchor="start" x="385" y="-256.8" font-family="Times,serif" font-size="14.00">id :integer</text>
<text text-anchor="start" x="385" y="-241.8" font-family="Times,serif" font-size="14.00">name :string</text>
<text text-anchor="start" x="385" y="-226.8" font-family="Times,serif" font-size="14.00">address :text</text>
<text text-anchor="start" x="385" y="-211.8" font-family="Times,serif" font-size="14.00">created_at :datetime</text>
<text text-anchor="start" x="385" y="-196.8" font-family="Times,serif" font-size="14.00">updated_at :datetime</text>
</g>
<!-- Order&#45;&gt;LineItem -->
<g id="edge8" class="edge"><title>Order&#45;&gt;LineItem</title>
<path fill="none" stroke="#44803d" d="M443,-180.355C443,-169.399 443,-157.896 443,-146.706"/>
<ellipse fill="none" stroke="#44803d" cx="443" cy="-184.658" rx="4" ry="4"/>
<polygon fill="#44803d" stroke="#44803d" points="443,-146.542 447.5,-136.542 443,-141.542 443,-136.542 443,-136.542 443,-136.542 443,-141.542 438.5,-136.542 443,-146.542 443,-146.542"/>
</g>
</g>
</svg>
