<?xml version="1.0" encoding="UTF-8" standalone="no"?>
<!DOCTYPE svg PUBLIC "-//W3C//DTD SVG 1.1//EN"
 "http://www.w3.org/Graphics/SVG/1.1/DTD/svg11.dtd">
<!-- Generated by graphviz version 2.28.0 (20120524.1256)
 -->
<!-- Title: models_diagram Pages: 1 -->
<svg width="667pt" height="462pt"
 viewBox="0.00 0.00 667.00 462.00" xmlns="http://www.w3.org/2000/svg" xmlns:xlink="http://www.w3.org/1999/xlink">
<g id="graph1" class="graph" transform="scale(1 1) rotate(0) translate(4 458)">
<title>models_diagram</title>
<polygon fill="white" stroke="white" points="-4,5 -4,-458 664,-458 664,5 -4,5"/>
<!-- _diagram_info -->
<g id="node1" class="node"><title>_diagram_info</title>
<text text-anchor="start" x="7.5" y="-424.6" font-family="Times,serif" font-size="13.00">Models diagram</text>
<text text-anchor="start" x="7.5" y="-410.6" font-family="Times,serif" font-size="13.00">Date: Aug 12 2012 &#45; 22:47</text>
<text text-anchor="start" x="7.5" y="-396.6" font-family="Times,serif" font-size="13.00">Migration version: 20120812150850</text>
<text text-anchor="start" x="7.5" y="-382.6" font-family="Times,serif" font-size="13.00">Generated by RailRoady 1.0.8</text>
<text text-anchor="start" x="7.5" y="-368.6" font-family="Times,serif" font-size="13.00">http://railroady.prestonlee.com</text>
</g>
<!-- Cart -->
<g id="node2" class="node"><title>Cart</title>
<polyline fill="none" stroke="black" points="239,-362 347,-362 "/>
<path fill="none" stroke="black" d="M347,-362C353,-362 359,-368 359,-374"/>
<polyline fill="none" stroke="black" points="359,-374 359,-426 "/>
<path fill="none" stroke="black" d="M359,-426C359,-432 353,-438 347,-438"/>
<polyline fill="none" stroke="black" points="347,-438 239,-438 "/>
<path fill="none" stroke="black" d="M239,-438C233,-438 227,-432 227,-426"/>
<polyline fill="none" stroke="black" points="227,-426 227,-374 "/>
<path fill="none" stroke="black" d="M227,-374C227,-368 233,-362 239,-362"/>
<text text-anchor="middle" x="293" y="-422.8" font-family="Times,serif" font-size="14.00">Cart</text>
<polyline fill="none" stroke="black" points="227,-415 359,-415 "/>
<text text-anchor="start" x="235" y="-399.8" font-family="Times,serif" font-size="14.00">id :integer</text>
<text text-anchor="start" x="235" y="-384.8" font-family="Times,serif" font-size="14.00">created_at :datetime</text>
<text text-anchor="start" x="235" y="-369.8" font-family="Times,serif" font-size="14.00">updated_at :datetime</text>
</g>
<!-- LineItem -->
<g id="node3" class="node"><title>LineItem</title>
<polyline fill="none" stroke="black" points="417,-188.5 525,-188.5 "/>
<path fill="none" stroke="black" d="M525,-188.5C531,-188.5 537,-194.5 537,-200.5"/>
<polyline fill="none" stroke="black" points="537,-200.5 537,-297.5 "/>
<path fill="none" stroke="black" d="M537,-297.5C537,-303.5 531,-309.5 525,-309.5"/>
<polyline fill="none" stroke="black" points="525,-309.5 417,-309.5 "/>
<path fill="none" stroke="black" d="M417,-309.5C411,-309.5 405,-303.5 405,-297.5"/>
<polyline fill="none" stroke="black" points="405,-297.5 405,-200.5 "/>
<path fill="none" stroke="black" d="M405,-200.5C405,-194.5 411,-188.5 417,-188.5"/>
<text text-anchor="middle" x="471" y="-294.3" font-family="Times,serif" font-size="14.00">LineItem</text>
<polyline fill="none" stroke="black" points="405,-286.5 537,-286.5 "/>
<text text-anchor="start" x="413" y="-271.3" font-family="Times,serif" font-size="14.00">id :integer</text>
<text text-anchor="start" x="413" y="-256.3" font-family="Times,serif" font-size="14.00">product_id :integer</text>
<text text-anchor="start" x="413" y="-241.3" font-family="Times,serif" font-size="14.00">cart_id :integer</text>
<text text-anchor="start" x="413" y="-226.3" font-family="Times,serif" font-size="14.00">created_at :datetime</text>
<text text-anchor="start" x="413" y="-211.3" font-family="Times,serif" font-size="14.00">updated_at :datetime</text>
<text text-anchor="start" x="413" y="-196.3" font-family="Times,serif" font-size="14.00">order_id :integer</text>
</g>
<!-- Cart&#45;&gt;LineItem -->
<g id="edge2" class="edge"><title>Cart&#45;&gt;LineItem</title>
<path fill="none" stroke="#e14f9f" d="M343.793,-356.482C360.293,-342.671 378.955,-327.049 396.8,-312.111"/>
<ellipse fill="none" stroke="#e14f9f" cx="340.525" cy="-359.218" rx="4.00002" ry="4.00002"/>
<polygon fill="#e14f9f" stroke="#e14f9f" points="397.263,-311.724 407.819,-308.756 401.097,-308.514 404.931,-305.305 404.931,-305.305 404.931,-305.305 401.097,-308.514 402.042,-301.854 397.263,-311.724 397.263,-311.724"/>
</g>
<!-- Ingredient -->
<g id="node6" class="node"><title>Ingredient</title>
<polyline fill="none" stroke="black" points="471,-0.5 579,-0.5 "/>
<path fill="none" stroke="black" d="M579,-0.5C585,-0.5 591,-6.5 591,-12.5"/>
<polyline fill="none" stroke="black" points="591,-12.5 591,-139.5 "/>
<path fill="none" stroke="black" d="M591,-139.5C591,-145.5 585,-151.5 579,-151.5"/>
<polyline fill="none" stroke="black" points="579,-151.5 471,-151.5 "/>
<path fill="none" stroke="black" d="M471,-151.5C465,-151.5 459,-145.5 459,-139.5"/>
<polyline fill="none" stroke="black" points="459,-139.5 459,-12.5 "/>
<path fill="none" stroke="black" d="M459,-12.5C459,-6.5 465,-0.5 471,-0.5"/>
<text text-anchor="middle" x="525" y="-136.3" font-family="Times,serif" font-size="14.00">Ingredient</text>
<polyline fill="none" stroke="black" points="459,-128.5 591,-128.5 "/>
<text text-anchor="start" x="467" y="-113.3" font-family="Times,serif" font-size="14.00">id :integer</text>
<text text-anchor="start" x="467" y="-98.3" font-family="Times,serif" font-size="14.00">name :string</text>
<text text-anchor="start" x="467" y="-83.3" font-family="Times,serif" font-size="14.00">quantity :integer</text>
<text text-anchor="start" x="467" y="-68.3" font-family="Times,serif" font-size="14.00">price :decimal</text>
<text text-anchor="start" x="467" y="-53.3" font-family="Times,serif" font-size="14.00">created_at :datetime</text>
<text text-anchor="start" x="467" y="-38.3" font-family="Times,serif" font-size="14.00">updated_at :datetime</text>
<text text-anchor="start" x="467" y="-23.3" font-family="Times,serif" font-size="14.00">active :boolean</text>
<text text-anchor="start" x="467" y="-8.3" font-family="Times,serif" font-size="14.00">threshold :integer</text>
</g>
<!-- LineItem&#45;&gt;Ingredient -->
<g id="edge4" class="edge"><title>LineItem&#45;&gt;Ingredient</title>
<path fill="none" stroke="#c3d7b6" d="M492.91,-178.618C494.716,-172.898 496.554,-167.078 498.39,-161.265"/>
<polygon fill="#c3d7b6" stroke="#c3d7b6" points="492.898,-178.657 485.595,-186.837 491.392,-183.425 489.887,-188.192 489.887,-188.192 489.887,-188.192 491.392,-183.425 494.178,-189.548 492.898,-178.657 492.898,-178.657"/>
<polygon fill="#c3d7b6" stroke="#c3d7b6" points="498.459,-161.045 505.762,-152.865 499.965,-156.277 501.471,-151.51 501.471,-151.51 501.471,-151.51 499.965,-156.277 497.18,-150.154 498.459,-161.045 498.459,-161.045"/>
</g>
<!-- Product -->
<g id="node4" class="node"><title>Product</title>
<polyline fill="none" stroke="black" points="539,-347 647,-347 "/>
<path fill="none" stroke="black" d="M647,-347C653,-347 659,-353 659,-359"/>
<polyline fill="none" stroke="black" points="659,-359 659,-441 "/>
<path fill="none" stroke="black" d="M659,-441C659,-447 653,-453 647,-453"/>
<polyline fill="none" stroke="black" points="647,-453 539,-453 "/>
<path fill="none" stroke="black" d="M539,-453C533,-453 527,-447 527,-441"/>
<polyline fill="none" stroke="black" points="527,-441 527,-359 "/>
<path fill="none" stroke="black" d="M527,-359C527,-353 533,-347 539,-347"/>
<text text-anchor="middle" x="593" y="-437.8" font-family="Times,serif" font-size="14.00">Product</text>
<polyline fill="none" stroke="black" points="527,-430 659,-430 "/>
<text text-anchor="start" x="535" y="-414.8" font-family="Times,serif" font-size="14.00">id :integer</text>
<text text-anchor="start" x="535" y="-399.8" font-family="Times,serif" font-size="14.00">title :string</text>
<text text-anchor="start" x="535" y="-384.8" font-family="Times,serif" font-size="14.00">price :decimal</text>
<text text-anchor="start" x="535" y="-369.8" font-family="Times,serif" font-size="14.00">created_at :datetime</text>
<text text-anchor="start" x="535" y="-354.8" font-family="Times,serif" font-size="14.00">updated_at :datetime</text>
</g>
<!-- Product&#45;&gt;LineItem -->
<g id="edge6" class="edge"><title>Product&#45;&gt;LineItem</title>
<path fill="none" stroke="#880b5d" d="M545.208,-340.631C539.106,-333.179 532.82,-325.502 526.609,-317.916"/>
<ellipse fill="none" stroke="#880b5d" cx="547.796" cy="-343.792" rx="4.00002" ry="4.00002"/>
<polygon fill="#880b5d" stroke="#880b5d" points="526.246,-317.473 523.393,-306.885 523.078,-313.604 519.911,-309.735 519.911,-309.735 519.911,-309.735 523.078,-313.604 516.429,-312.586 526.246,-317.473 526.246,-317.473"/>
</g>
<!-- Product&#45;&gt;Ingredient -->
<g id="edge8" class="edge"><title>Product&#45;&gt;Ingredient</title>
<path fill="none" stroke="#d925fc" d="M579.902,-336.975C569.378,-287.143 554.49,-216.642 542.872,-161.627"/>
<polygon fill="#d925fc" stroke="#d925fc" points="579.933,-337.123 577.596,-347.837 580.966,-342.015 581.999,-346.907 581.999,-346.907 581.999,-346.907 580.966,-342.015 586.402,-345.977 579.933,-337.123 579.933,-337.123"/>
<polygon fill="#d925fc" stroke="#d925fc" points="542.808,-161.327 545.145,-150.613 541.775,-156.435 540.742,-151.543 540.742,-151.543 540.742,-151.543 541.775,-156.435 536.339,-152.473 542.808,-161.327 542.808,-161.327"/>
</g>
<!-- Order -->
<g id="node5" class="node"><title>Order</title>
<polyline fill="none" stroke="black" points="389,-347 497,-347 "/>
<path fill="none" stroke="black" d="M497,-347C503,-347 509,-353 509,-359"/>
<polyline fill="none" stroke="black" points="509,-359 509,-441 "/>
<path fill="none" stroke="black" d="M509,-441C509,-447 503,-453 497,-453"/>
<polyline fill="none" stroke="black" points="497,-453 389,-453 "/>
<path fill="none" stroke="black" d="M389,-453C383,-453 377,-447 377,-441"/>
<polyline fill="none" stroke="black" points="377,-441 377,-359 "/>
<path fill="none" stroke="black" d="M377,-359C377,-353 383,-347 389,-347"/>
<text text-anchor="middle" x="443" y="-437.8" font-family="Times,serif" font-size="14.00">Order</text>
<polyline fill="none" stroke="black" points="377,-430 509,-430 "/>
<text text-anchor="start" x="385" y="-414.8" font-family="Times,serif" font-size="14.00">id :integer</text>
<text text-anchor="start" x="385" y="-399.8" font-family="Times,serif" font-size="14.00">name :string</text>
<text text-anchor="start" x="385" y="-384.8" font-family="Times,serif" font-size="14.00">address :text</text>
<text text-anchor="start" x="385" y="-369.8" font-family="Times,serif" font-size="14.00">created_at :datetime</text>
<text text-anchor="start" x="385" y="-354.8" font-family="Times,serif" font-size="14.00">updated_at :datetime</text>
</g>
<!-- Order&#45;&gt;LineItem -->
<g id="edge10" class="edge"><title>Order&#45;&gt;LineItem</title>
<path fill="none" stroke="#4121e7" d="M454.293,-338.904C455.479,-332.594 456.692,-326.141 457.895,-319.735"/>
<ellipse fill="none" stroke="#4121e7" cx="453.532" cy="-342.956" rx="4.00001" ry="4.00001"/>
<polygon fill="#4121e7" stroke="#4121e7" points="457.928,-319.563 464.197,-310.567 458.851,-314.649 459.775,-309.735 459.775,-309.735 459.775,-309.735 458.851,-314.649 455.352,-308.904 457.928,-319.563 457.928,-319.563"/>
</g>
</g>
</svg>
