<?xml version="1.0" encoding="UTF-8" standalone="no"?>
<!DOCTYPE svg PUBLIC "-//W3C//DTD SVG 1.1//EN"
 "http://www.w3.org/Graphics/SVG/1.1/DTD/svg11.dtd">
<!-- Generated by graphviz version 2.28.0 (20120524.1256)
 -->
<!-- Title: models_diagram Pages: 1 -->
<svg width="488pt" height="158pt"
 viewBox="0.00 0.00 488.00 158.00" xmlns="http://www.w3.org/2000/svg" xmlns:xlink="http://www.w3.org/1999/xlink">
<g id="graph1" class="graph" transform="scale(1 1) rotate(0) translate(4 154)">
<title>models_diagram</title>
<polygon fill="white" stroke="white" points="-4,5 -4,-154 485,-154 485,5 -4,5"/>
<!-- _diagram_info -->
<g id="node1" class="node"><title>_diagram_info</title>
<text text-anchor="start" x="7.5" y="-135.6" font-family="Times,serif" font-size="13.00">Models diagram</text>
<text text-anchor="start" x="7.5" y="-121.6" font-family="Times,serif" font-size="13.00">Date: Aug 10 2012 &#45; 19:07</text>
<text text-anchor="start" x="7.5" y="-107.6" font-family="Times,serif" font-size="13.00">Migration version: 20120809142645</text>
<text text-anchor="start" x="7.5" y="-93.6" font-family="Times,serif" font-size="13.00">Generated by RailRoady 1.0.8</text>
<text text-anchor="start" x="7.5" y="-79.6" font-family="Times,serif" font-size="13.00">http://railroady.prestonlee.com</text>
</g>
<!-- Cart -->
<g id="node2" class="node"><title>Cart</title>
<ellipse fill="none" stroke="black" cx="254" cy="-111" rx="27" ry="18"/>
<text text-anchor="middle" x="254" y="-107.3" font-family="Times,serif" font-size="14.00">Cart</text>
</g>
<!-- LineItem -->
<g id="node3" class="node"><title>LineItem</title>
<ellipse fill="none" stroke="black" cx="327" cy="-18" rx="42.3701" ry="18"/>
<text text-anchor="middle" x="327" y="-14.3" font-family="Times,serif" font-size="14.00">LineItem</text>
</g>
<!-- Cart&#45;&gt;LineItem -->
<g id="edge2" class="edge"><title>Cart&#45;&gt;LineItem</title>
<path fill="none" stroke="#79c771" d="M271.653,-87.9946C282.41,-74.585 296.177,-57.4234 307.289,-43.5709"/>
<ellipse fill="none" stroke="#79c771" cx="268.886" cy="-91.443" rx="4.00002" ry="4.00002"/>
<polygon fill="#79c771" stroke="#79c771" points="307.557,-43.2369 317.325,-38.2524 310.686,-39.3368 313.815,-35.4366 313.815,-35.4366 313.815,-35.4366 310.686,-39.3368 310.304,-32.6207 307.557,-43.2369 307.557,-43.2369"/>
</g>
<!-- Product -->
<g id="node4" class="node"><title>Product</title>
<ellipse fill="none" stroke="black" cx="426" cy="-111" rx="39.9464" ry="18"/>
<text text-anchor="middle" x="426" y="-107.3" font-family="Times,serif" font-size="14.00">Product</text>
</g>
<!-- Product&#45;&gt;LineItem -->
<g id="edge4" class="edge"><title>Product&#45;&gt;LineItem</title>
<path fill="none" stroke="#09c738" d="M402.877,-88.7456C387.491,-74.6031 367.303,-56.046 351.618,-41.6291"/>
<ellipse fill="none" stroke="#09c738" cx="406.261" cy="-91.8561" rx="4.00002" ry="4.00002"/>
<polygon fill="#09c738" stroke="#09c738" points="351.239,-41.28 346.922,-31.1996 347.558,-37.8963 343.876,-34.5126 343.876,-34.5126 343.876,-34.5126 347.558,-37.8963 340.831,-37.8257 351.239,-41.28 351.239,-41.28"/>
</g>
<!-- Ingredient -->
<g id="node6" class="node"><title>Ingredient</title>
<ellipse fill="none" stroke="black" cx="434" cy="-18" rx="46.1964" ry="18"/>
<text text-anchor="middle" x="434" y="-14.3" font-family="Times,serif" font-size="14.00">Ingredient</text>
</g>
<!-- Product&#45;&gt;Ingredient -->
<g id="edge6" class="edge"><title>Product&#45;&gt;Ingredient</title>
<path fill="none" stroke="#eb684a" d="M428.413,-82.5485C429.421,-71.0829 430.59,-57.7923 431.597,-46.3387"/>
<polygon fill="#eb684a" stroke="#eb684a" points="428.381,-82.922 423.022,-92.4895 427.943,-87.9028 427.505,-92.8836 427.505,-92.8836 427.505,-92.8836 427.943,-87.9028 431.987,-93.2777 428.381,-82.922 428.381,-82.922"/>
<polygon fill="#eb684a" stroke="#eb684a" points="431.626,-46.0012 436.985,-36.4338 432.064,-41.0204 432.502,-36.0397 432.502,-36.0397 432.502,-36.0397 432.064,-41.0204 428.019,-35.6455 431.626,-46.0012 431.626,-46.0012"/>
</g>
<!-- Order -->
<g id="node5" class="node"><title>Order</title>
<ellipse fill="none" stroke="black" cx="331" cy="-111" rx="32.2457" ry="18"/>
<text text-anchor="middle" x="331" y="-107.3" font-family="Times,serif" font-size="14.00">Order</text>
</g>
<!-- Order&#45;&gt;LineItem -->
<g id="edge8" class="edge"><title>Order&#45;&gt;LineItem</title>
<path fill="none" stroke="#53327a" d="M329.889,-84.7285C329.362,-72.7246 328.73,-58.3622 328.192,-46.1291"/>
<ellipse fill="none" stroke="#53327a" cx="330.072" cy="-88.8875" rx="4" ry="4"/>
<polygon fill="#53327a" stroke="#53327a" points="328.188,-46.03 332.245,-35.842 327.969,-41.0348 327.749,-36.0397 327.749,-36.0397 327.749,-36.0397 327.969,-41.0348 323.253,-36.2373 328.188,-46.03 328.188,-46.03"/>
</g>
</g>
</svg>
