<?xml version="1.0" encoding="UTF-8" standalone="no"?>
<!DOCTYPE svg PUBLIC "-//W3C//DTD SVG 1.1//EN"
 "http://www.w3.org/Graphics/SVG/1.1/DTD/svg11.dtd">
<!-- Generated by graphviz version 2.28.0 (20120524.1256)
 -->
<!-- Title: models_diagram Pages: 1 -->
<svg width="470pt" height="230pt"
 viewBox="0.00 0.00 470.00 230.00" xmlns="http://www.w3.org/2000/svg" xmlns:xlink="http://www.w3.org/1999/xlink">
<g id="graph1" class="graph" transform="scale(1 1) rotate(0) translate(4 226)">
<title>models_diagram</title>
<polygon fill="white" stroke="white" points="-4,5 -4,-226 467,-226 467,5 -4,5"/>
<!-- _diagram_info -->
<g id="node1" class="node"><title>_diagram_info</title>
<text text-anchor="start" x="7.5" y="-207.6" font-family="Times,serif" font-size="13.00">Models diagram</text>
<text text-anchor="start" x="7.5" y="-193.6" font-family="Times,serif" font-size="13.00">Date: Aug 12 2012 &#45; 22:47</text>
<text text-anchor="start" x="7.5" y="-179.6" font-family="Times,serif" font-size="13.00">Migration version: 20120812150850</text>
<text text-anchor="start" x="7.5" y="-165.6" font-family="Times,serif" font-size="13.00">Generated by RailRoady 1.0.8</text>
<text text-anchor="start" x="7.5" y="-151.6" font-family="Times,serif" font-size="13.00">http://railroady.prestonlee.com</text>
</g>
<!-- Cart -->
<g id="node2" class="node"><title>Cart</title>
<ellipse fill="none" stroke="black" cx="254" cy="-183" rx="27" ry="18"/>
<text text-anchor="middle" x="254" y="-179.3" font-family="Times,serif" font-size="14.00">Cart</text>
</g>
<!-- LineItem -->
<g id="node3" class="node"><title>LineItem</title>
<ellipse fill="none" stroke="black" cx="341" cy="-90" rx="42.3701" ry="18"/>
<text text-anchor="middle" x="341" y="-86.3" font-family="Times,serif" font-size="14.00">LineItem</text>
</g>
<!-- Cart&#45;&gt;LineItem -->
<g id="edge2" class="edge"><title>Cart&#45;&gt;LineItem</title>
<path fill="none" stroke="#5c6ace" d="M273.554,-161.301C278.879,-155.68 284.654,-149.599 290,-144 299.232,-134.331 309.442,-123.707 318.286,-114.526"/>
<ellipse fill="none" stroke="#5c6ace" cx="270.742" cy="-164.272" rx="4.00002" ry="4.00002"/>
<polygon fill="#5c6ace" stroke="#5c6ace" points="318.402,-114.405 328.582,-110.329 321.872,-110.806 325.343,-107.206 325.343,-107.206 325.343,-107.206 321.872,-110.806 322.103,-104.083 318.402,-114.405 318.402,-114.405"/>
</g>
<!-- Ingredient -->
<g id="node6" class="node"><title>Ingredient</title>
<ellipse fill="none" stroke="black" cx="378" cy="-18" rx="46.1964" ry="18"/>
<text text-anchor="middle" x="378" y="-14.3" font-family="Times,serif" font-size="14.00">Ingredient</text>
</g>
<!-- LineItem&#45;&gt;Ingredient -->
<g id="edge4" class="edge"><title>LineItem&#45;&gt;Ingredient</title>
<path fill="none" stroke="#99b79f" d="M354.742,-63.0016C357.898,-57.0308 361.252,-50.685 364.402,-44.7258"/>
<polygon fill="#99b79f" stroke="#99b79f" points="354.63,-63.214 345.978,-69.952 352.293,-67.6345 349.957,-72.055 349.957,-72.055 349.957,-72.055 352.293,-67.6345 353.935,-74.1579 354.63,-63.214 354.63,-63.214"/>
<polygon fill="#99b79f" stroke="#99b79f" points="364.453,-44.63 373.104,-37.8919 366.789,-40.2095 369.126,-35.789 369.126,-35.789 369.126,-35.789 366.789,-40.2095 365.147,-33.6861 364.453,-44.63 364.453,-44.63"/>
</g>
<!-- Product -->
<g id="node4" class="node"><title>Product</title>
<ellipse fill="none" stroke="black" cx="422" cy="-183" rx="39.9464" ry="18"/>
<text text-anchor="middle" x="422" y="-179.3" font-family="Times,serif" font-size="14.00">Product</text>
</g>
<!-- Product&#45;&gt;LineItem -->
<g id="edge6" class="edge"><title>Product&#45;&gt;LineItem</title>
<path fill="none" stroke="#b412a2" d="M402.033,-159.568C389.935,-145.976 374.513,-128.65 362.199,-114.816"/>
<ellipse fill="none" stroke="#b412a2" cx="404.859" cy="-162.743" rx="4.00002" ry="4.00002"/>
<polygon fill="#b412a2" stroke="#b412a2" points="362.005,-114.598 358.717,-104.136 358.68,-110.863 355.356,-107.128 355.356,-107.128 355.356,-107.128 358.68,-110.863 351.994,-110.12 362.005,-114.598 362.005,-114.598"/>
</g>
<!-- Product&#45;&gt;Ingredient -->
<g id="edge8" class="edge"><title>Product&#45;&gt;Ingredient</title>
<path fill="none" stroke="#45aec8" d="M414.655,-154.791C406.523,-124.664 393.49,-76.3819 385.354,-46.2417"/>
<polygon fill="#45aec8" stroke="#45aec8" points="414.768,-155.21 413.03,-166.037 416.071,-160.037 417.374,-164.864 417.374,-164.864 417.374,-164.864 416.071,-160.037 421.719,-163.691 414.768,-155.21 414.768,-155.21"/>
<polygon fill="#45aec8" stroke="#45aec8" points="385.302,-46.0512 387.041,-35.224 383.999,-41.224 382.696,-36.3968 382.696,-36.3968 382.696,-36.3968 383.999,-41.224 378.352,-37.5696 385.302,-46.0512 385.302,-46.0512"/>
</g>
<!-- Order -->
<g id="node5" class="node"><title>Order</title>
<ellipse fill="none" stroke="black" cx="331" cy="-183" rx="32.2457" ry="18"/>
<text text-anchor="middle" x="331" y="-179.3" font-family="Times,serif" font-size="14.00">Order</text>
</g>
<!-- Order&#45;&gt;LineItem -->
<g id="edge10" class="edge"><title>Order&#45;&gt;LineItem</title>
<path fill="none" stroke="#d73884" d="M333.777,-156.729C335.096,-144.725 336.674,-130.362 338.019,-118.129"/>
<ellipse fill="none" stroke="#d73884" cx="333.318" cy="-160.908" rx="4.00001" ry="4.00001"/>
<polygon fill="#d73884" stroke="#d73884" points="338.035,-117.98 343.601,-108.531 338.581,-113.01 339.128,-108.04 339.128,-108.04 339.128,-108.04 338.581,-113.01 334.654,-107.548 338.035,-117.98 338.035,-117.98"/>
</g>
</g>
</svg>
